<svg width="960" height="720" viewBox="0 0 960 720" fill="none" xmlns="http://www.w3.org/2000/svg">
  <rect width="960" height="720" rx="48" fill="#14212F"/>
  <rect x="56" y="56" width="848" height="608" rx="32" fill="#1D3143"/>
  <rect x="108" y="120" width="280" height="180" rx="24" fill="#FCF8F1"/>
  <rect x="428" y="120" width="424" height="72" rx="20" fill="#2A3E51"/>
  <rect x="428" y="216" width="356" height="28" rx="14" fill="#445766"/>
  <rect x="428" y="262" width="270" height="28" rx="14" fill="#445766"/>
  <rect x="108" y="342" width="744" height="264" rx="28" fill="#24384A"/>
  <path d="M168 534C223.333 470.667 278.667 439 334 439C389.333 439 444.667 468.333 500 527C555.333 585.667 610.667 615 666 615C721.333 615 776.667 585.667 832 527" stroke="#B85D27" stroke-width="20" stroke-linecap="round"/>
  <circle cx="252" cy="214" r="54" fill="#B85D27"/>
  <circle cx="252" cy="214" r="26" fill="#FCF8F1"/>
  <rect x="160" y="390" width="176" height="116" rx="22" fill="#FCF8F1"/>
  <rect x="376" y="390" width="176" height="116" rx="22" fill="#FCF8F1" fill-opacity="0.8"/>
  <rect x="592" y="390" width="176" height="116" rx="22" fill="#FCF8F1" fill-opacity="0.6"/>
</svg>
