<svg width="960" height="720" viewBox="0 0 960 720" fill="none" xmlns="http://www.w3.org/2000/svg">
  <rect width="960" height="720" rx="48" fill="#FCF8F1"/>
  <rect x="44" y="44" width="872" height="632" rx="36" fill="#F2E8DA"/>
  <rect x="108" y="108" width="744" height="504" rx="32" fill="#FFFFFF"/>
  <rect x="156" y="156" width="292" height="404" rx="28" fill="#14212F"/>
  <rect x="196" y="204" width="212" height="212" rx="24" fill="#24384A"/>
  <circle cx="302" cy="310" r="66" fill="#B85D27"/>
  <rect x="196" y="450" width="212" height="24" rx="12" fill="#FCF8F1"/>
  <rect x="196" y="492" width="156" height="18" rx="9" fill="#B2BAB0"/>
  <rect x="500" y="176" width="280" height="42" rx="21" fill="#24384A"/>
  <rect x="500" y="246" width="300" height="22" rx="11" fill="#B2BAB0"/>
  <rect x="500" y="286" width="248" height="22" rx="11" fill="#B2BAB0"/>
  <rect x="500" y="364" width="304" height="172" rx="24" fill="#F6F1E8"/>
  <path d="M540 458H766" stroke="#B85D27" stroke-width="18" stroke-linecap="round"/>
  <path d="M540 410H700" stroke="#14212F" stroke-width="18" stroke-linecap="round"/>
  <path d="M540 506H680" stroke="#445766" stroke-width="18" stroke-linecap="round"/>
</svg>
